<?xml version="1.0" encoding="UTF-8" standalone="no"?> <!-- Created with Vectornator for iOS (http://vectornator.io/) --><!DOCTYPE svg PUBLIC "-//W3C//DTD SVG 1.1//EN" "http://www.w3.org/Graphics/SVG/1.1/DTD/svg11.dtd">
<svg height="100%" style="fill-rule:nonzero;clip-rule:evenodd;stroke-linecap:round;stroke-linejoin:round;" xmlns:xlink="http://www.w3.org/1999/xlink" xmlns="http://www.w3.org/2000/svg" xml:space="preserve" width="100%" xmlns:vectornator="http://vectornator.io" version="1.1" viewBox="0 0 319.7 1439.36">
<metadata>
<vectornator:setting key="DimensionsVisible" value="0"/>
<vectornator:setting key="PencilOnly" value="0"/>
<vectornator:setting key="SnapToPoints" value="0"/>
<vectornator:setting key="OutlineMode" value="0"/>
<vectornator:setting key="CMYKEnabledKey" value="0"/>
<vectornator:setting key="RulersVisible" value="1"/>
<vectornator:setting key="SnapToEdges" value="0"/>
<vectornator:setting key="GuidesVisible" value="0"/>
<vectornator:setting key="DisplayWhiteBackground" value="0"/>
<vectornator:setting key="doHistoryDisabled" value="0"/>
<vectornator:setting key="SnapToGuides" value="1"/>
<vectornator:setting key="TimeLapseWatermarkDisabled" value="0"/>
<vectornator:setting key="Units" value="Points"/>
<vectornator:setting key="DynamicGuides" value="1"/>
<vectornator:setting key="IsolateActiveLayer" value="0"/>
<vectornator:setting key="SnapToGrid" value="0"/>
</metadata>
<defs/>
<g id="Layer 1" vectornator:layerName="Layer 1">
<path d="M251.02+1440.32L235.02+1410.32C219.02+1380.32+187.02+1320.32+176.32+1260.32C166.02+1200.32+176.02+1140.32+176.32+1080.32C176.02+1020.32+166.02+960.321+139.02+900.321C112.02+840.321+70.0197+780.321+53.7197+720.321C38.0197+660.321+48.0197+600.321+85.7197+540.321C123.02+480.321+187.02+420.321+197.72+360.321C208.02+300.321+166.02+240.321+165.72+180.321C166.02+120.321+208.02+60.3207+229.72+30.3207L251.02+0.320656L-4.98031+0.320645L-4.98031+30.3206C-4.98032+60.3206-4.98032+120.321-4.98032+180.321C-4.98032+240.321-4.98033+300.321-4.98033+360.321C-4.98033+420.321-4.98033+480.321-4.98034+540.321C-4.98034+600.321-4.98034+660.321-4.98034+720.321C-4.98035+780.321-4.98035+840.321-4.98035+900.321C-4.98035+960.321-4.98036+1020.32-4.98036+1080.32C-4.98036+1140.32-4.98036+1200.32-4.98037+1260.32C-4.98037+1320.32-4.98037+1380.32-4.98037+1410.32L-4.98038+1440.32L251.02+1440.32Z" opacity="1" fill="#0099ff"/>
</g>
</svg>
